<?xml version="1.0" standalone="no"?>
<!DOCTYPE svg PUBLIC "-//W3C//DTD SVG 20010904//EN"
 "http://www.w3.org/TR/2001/REC-SVG-20010904/DTD/svg10.dtd">
<svg version="1.0" xmlns="http://www.w3.org/2000/svg"
 width="270.000000pt" height="270.000000pt" viewBox="0 0 270.000000 270.000000"
 preserveAspectRatio="xMidYMid meet">
<metadata>
Created by potrace 1.11, written by Peter Selinger 2001-2013
</metadata>
<g transform="translate(0.000000,270.000000) scale(0.100000,-0.100000)"
fill="#000000" stroke="none">
<path d="M365 2686 c-169 -42 -305 -177 -351 -349 -11 -42 -14 -224 -13 -987
0 -874 2 -939 19 -1003 32 -120 126 -237 237 -293 109 -55 89 -54 1123 -51
l955 2 56 23 c125 50 231 155 281 279 l23 58 2 965 2 965 -23 70 c-28 86 -59
136 -124 201 -57 57 -138 101 -220 120 -80 19 -1892 19 -1967 0z"/>
</g>
</svg>
